<?xml version="1.0" encoding="UTF-8"?>
<svg xmlns="http://www.w3.org/2000/svg" viewBox="-50 -50 100 100" width="128" height="128">
  <defs>
    <linearGradient id="nb-ring" x1="0" y1="0" x2="1" y2="1">
      <stop offset="0%" stop-color="#27709c"></stop>
      <stop offset="45%" stop-color="#2f4c7e"></stop>
      <stop offset="100%" stop-color="#2c2e56"></stop>
    </linearGradient>
    <radialGradient id="nb-inner" cx="50%" cy="42%" r="62%">
      <stop offset="0%" stop-color="#252e3d"></stop>
      <stop offset="100%" stop-color="#11161f"></stop>
    </radialGradient>
  </defs>
  <path d="M -34 -10 L -32 -34 L -18 -26 L -10 -34 L 0 -28 L 10 -34 L 18 -26 L 32 -34 L 34 -10 Q 38 14 24 28 Q 0 38 -24 28 Q -38 14 -34 -10 Z" fill="url(#nb-ring)"></path>
  <g transform="translate(0 3) scale(0.84)"><path d="M -34 -10 L -32 -34 L -18 -26 L -10 -34 L 0 -28 L 10 -34 L 18 -26 L 32 -34 L 34 -10 Q 38 14 24 28 Q 0 38 -24 28 Q -38 14 -34 -10 Z" fill="url(#nb-inner)"></path></g>
  <path d="M -22 -32 L -22 -16 L -18 -20 L -14 -16 L -14 -32 Z" fill="#f0c781" opacity="0.95"></path>
  <g transform="translate(0 2) scale(0.84)">
    <ellipse cx="-11" cy="0" rx="3.0" ry="4.0" fill="white"></ellipse>
    <ellipse cx="11" cy="0" rx="3.0" ry="4.0" fill="white"></ellipse>
    
    <ellipse cx="-10" cy="-1.2" rx="0.8" ry="1" fill="white" opacity="0.85"></ellipse>
    <ellipse cx="12" cy="-1.2" rx="0.8" ry="1" fill="white" opacity="0.85"></ellipse>
    <path d="M -4 9 Q 0 12.5 4 9" stroke="white" stroke-width="2.2" fill="none" stroke-linecap="round"></path>
  </g>
  <circle cx="38" cy="-38" r="3.2" fill="#f0c781"></circle>
     <circle cx="44" cy="-44" r="1.4" fill="#f0c781" opacity="0.75"></circle>
</svg>